<svg width="40" height="40" viewBox="0 0 40 40" fill="none" xmlns="http://www.w3.org/2000/svg">
<path d="M38.6299 14.0729L37.0301 12.4726C35.8085 13.2894 34.3415 13.6573 32.8791 13.5133C31.4168 13.3694 30.0496 12.7227 29.0106 11.6833C27.9716 10.644 27.325 9.27637 27.1812 7.81358C27.0373 6.35079 27.405 4.88336 28.2216 3.6614L25.9334 1.37253C25.0505 0.493492 23.8555 0 22.6098 0C21.364 0 20.169 0.493492 19.2861 1.37253L1.37211 19.2838C0.49334 20.167 0 21.3624 0 22.6085C0 23.8546 0.49334 25.05 1.37211 25.9332L3.46361 28.0233C4.65994 27.4074 6.02093 27.1875 7.35029 27.3953C8.67964 27.6031 9.90865 28.2279 10.8601 29.1796C11.8115 30.1313 12.4361 31.3607 12.6439 32.6905C12.8516 34.0202 12.6318 35.3817 12.016 36.5784L14.0645 38.6275C14.9474 39.5065 16.1425 40 17.3882 40C18.6339 40 19.8289 39.5065 20.7118 38.6275L38.6299 20.7182C39.5075 19.8352 40 18.6407 40 17.3956C40 16.1505 39.5075 14.956 38.6299 14.0729ZM24.7289 17.079H21.0539V23.7202C21.0539 25.2672 21.6685 26.0398 22.9242 26.0398H24.7289V30.1031H22.3117C18.5405 30.1031 16.3178 27.7815 16.3178 23.9128V17.079H13.2881V13.3701H16.3178V10.3087L21.0539 7.82519V13.3701H24.7289V17.079Z" fill="#6EFC2A"/>
</svg>
