<svg width="158" height="40" viewBox="0 0 158 40" fill="none" xmlns="http://www.w3.org/2000/svg">
<path d="M38.6299 14.0729L37.0301 12.4726C35.8085 13.2894 34.3415 13.6573 32.8791 13.5133C31.4168 13.3694 30.0496 12.7227 29.0106 11.6833C27.9716 10.644 27.325 9.27637 27.1812 7.81358C27.0373 6.35079 27.405 4.88336 28.2216 3.6614L25.9334 1.37253C25.0505 0.493492 23.8555 0 22.6098 0C21.364 0 20.169 0.493492 19.2861 1.37253L1.37211 19.2838C0.49334 20.167 0 21.3624 0 22.6085C0 23.8546 0.49334 25.05 1.37211 25.9332L3.46361 28.0233C4.65994 27.4074 6.02093 27.1875 7.35029 27.3953C8.67964 27.6031 9.90865 28.2279 10.8601 29.1796C11.8115 30.1313 12.4361 31.3607 12.6439 32.6905C12.8516 34.0202 12.6318 35.3817 12.016 36.5784L14.0645 38.6275C14.9474 39.5065 16.1425 40 17.3882 40C18.6339 40 19.8289 39.5065 20.7118 38.6275L38.6299 20.7182C39.5075 19.8352 40 18.6407 40 17.3956C40 16.1505 39.5075 14.956 38.6299 14.0729ZM24.7289 17.079H21.0539V23.7202C21.0539 25.2672 21.6685 26.0398 22.9242 26.0398H24.7289V30.1031H22.3117C18.5405 30.1031 16.3178 27.7815 16.3178 23.9128V17.079H13.2881V13.3701H16.3178V10.3087L21.0539 7.82519V13.3701H24.7289V17.079Z" fill="#6EFC2A"/>
<path d="M53.5932 19.6392H50.3047V16.0553H53.5932V12.5969L58.1072 10.1215V16.0502H62.1304V19.634H58.1072V27.5441C58.1072 29.2516 58.7726 30.1245 60.2061 30.1245H62.1304V33.9925H59.6461C55.7924 33.9925 53.5932 31.5862 53.5932 27.7515V19.6392Z" fill="white"/>
<path d="M64.0176 11.3086C64.0176 9.6344 65.3021 8.5874 66.9233 8.5874C68.5444 8.5874 69.8264 9.6344 69.8264 11.3086C69.8264 12.9827 68.5418 13.9913 66.9233 13.9913C65.3047 13.9913 64.0176 13.016 64.0176 11.3086ZM64.647 16.0495H69.161V34.0021H64.647V16.0495Z" fill="white"/>
<path d="M71.8887 25.0101C71.8887 19.3963 75.8066 15.6307 80.9166 15.6307C84.9039 15.6307 88.3337 17.6172 89.5232 22.0099L85.5333 23.4486C84.6598 20.6942 83.1903 19.6088 80.9089 19.6088C78.6275 19.6088 76.5414 21.3853 76.5414 25.0127C76.5414 28.6401 78.6404 30.4141 80.9089 30.4141C83.1774 30.4141 84.6521 29.3697 85.5333 26.6152L89.5232 28.0436C88.3337 32.4364 84.8988 34.4255 80.9166 34.4255C75.8066 34.4229 71.8887 30.6163 71.8887 25.0101Z" fill="white"/>
<path d="M91.7969 9.59912H96.3442V24.0677L102.888 16.0501H108.414L101.102 24.5208L108.519 33.9924H103.003L96.3545 25.0686V33.9924H91.8071L91.7969 9.59912Z" fill="white"/>
<path d="M121.431 27.1706L125.246 28.5684C123.846 32.6104 120.663 34.4254 116.989 34.4254C111.671 34.4254 107.961 30.6598 107.961 25.0127C107.961 19.4346 111.601 15.6332 116.778 15.6332C121.783 15.6332 125.279 19.3988 125.279 24.9768C125.279 25.2917 125.279 25.7089 125.246 26.0213H112.544C112.824 29.1597 114.505 30.5907 116.814 30.5907C118.947 30.5881 120.488 29.6102 121.431 27.1706ZM112.696 22.9519H120.706C120.218 20.4074 118.749 19.258 116.788 19.258C114.566 19.258 113.174 20.4765 112.686 22.9519H112.696Z" fill="white"/>
<path d="M129.445 19.6392H126.154V16.0553H129.445V12.5969L133.957 10.1215V16.0502H137.983V19.634H133.957V27.5441C133.957 29.2516 134.622 30.1245 136.058 30.1245H137.983V33.9925H135.498C131.645 33.9925 129.445 31.5862 129.445 27.7515V19.6392Z" fill="white"/>
<path d="M141.722 39.8957L145.851 30.8311L138.889 16.0502H144.068L148.161 25.8111L152.569 16.0502H157.502L146.658 39.8957H141.722Z" fill="white"/>
</svg>
